# xmcd
#
# Track frame offsets:
#	150
#	14075
#	33587
#	50680
#	62307
#	80782
#	93107
#	109397
#	125110
#	139012
#	158482
#	175560
#	187205
#	205712
#	218042
#	234302
#
# Disc length: 3335 seconds
#
# Revision: 0
# Processed by: cddbd v1.5.1PL2 Copyright (c) Steve Scherf et al.
# Submitted via: audiograbber 1.83.01
#
DISCID=dd0d0510
DTITLE=Tracy Byrd   - Sc2127
DYEAR=1900
DGENRE=Country
TTITLE0=Lifestyles Of The Not So Rich And Famous
TTITLE1=Keeper Of The Stars
TTITLE2=Walking To Jerusalem
TTITLE3=First Step
TTITLE4=Love Lessons
TTITLE5=Holdin' Heaven
TTITLE6=Heaven In My Woman's Eyes
TTITLE7=Why Don't That Telephone Ring
TTITLE8=Lifestyles Of The Not So Rich And Famous (Vocal)
TTITLE9=Keeper Of The Stars (Vocal)
TTITLE10=Walking To Jerusalem (Vocal)
TTITLE11=First Step (Vocal)
TTITLE12=Love Lessons (Vocal)
TTITLE13=Holdin' Heaven (Vocal)
TTITLE14=Heaven In My Woman's Eyes (Vocal)
TTITLE15=Why Don't That Telephone Ring (Vocal)
EXTD=
EXTT0=
EXTT1=
EXTT2=
EXTT3=
EXTT4=
EXTT5=
EXTT6=
EXTT7=
EXTT8=
EXTT9=
EXTT10=
EXTT11=
EXTT12=
EXTT13=
EXTT14=
EXTT15=
PLAYORDER=
